<svg id="visual" viewBox="0 0 960 540" width="960" height="540" xmlns="http://www.w3.org/2000/svg" xmlns:xlink="http://www.w3.org/1999/xlink" version="1.1"><rect x="0" y="0" width="960" height="540" fill="#715DF2"></rect><g transform="translate(462.09117782776156 275.1129165922092)"><path d="M78 -158.5C96.6 -124.3 104.1 -94.4 128.8 -68.7C153.5 -43 195.2 -21.5 200.1 2.8C205.1 27.2 173.1 54.3 142.9 70.4C112.6 86.4 84.1 91.3 60.5 112.2C37 133.1 18.5 170 -12.7 192.1C-44 214.2 -88 221.4 -102.9 195.5C-117.7 169.6 -103.5 110.5 -115.3 72.4C-127.1 34.3 -165.1 17.2 -164.8 0.1C-164.6 -16.9 -126.1 -33.8 -100.7 -48.3C-75.3 -62.9 -62.9 -75.2 -48.3 -111.8C-33.7 -148.3 -16.8 -209.2 6.4 -220.3C29.7 -231.4 59.3 -192.8 78 -158.5" fill="#6600FF"></path></g></svg>