<svg id="visual" viewBox="0 0 960 540" width="960" height="540" xmlns="http://www.w3.org/2000/svg" xmlns:xlink="http://www.w3.org/1999/xlink" version="1.1"><rect x="0" y="0" width="960" height="540" fill="#715DF2"></rect><g transform="translate(496.668050422219 336.0589467061409)"><path d="M120.3 -218C150.9 -190.6 167.2 -148.3 162.6 -109.5C158.1 -70.7 132.5 -35.3 137.7 3C142.9 41.3 178.8 82.7 172.5 102.6C166.2 122.5 117.6 121 81.8 120C46 119 23 118.5 3.1 113.2C-16.9 107.9 -33.8 97.8 -69.3 98.6C-104.8 99.5 -158.9 111.2 -185.3 96.6C-211.7 82 -210.3 41 -198.5 6.8C-186.7 -27.3 -164.4 -54.7 -147.9 -86.6C-131.5 -118.5 -121 -154.9 -97.3 -186.3C-73.7 -217.6 -36.8 -243.8 4 -250.7C44.8 -257.7 89.7 -245.3 120.3 -218" fill="#6600FF"></path></g></svg>